<svg xmlns="http://www.w3.org/2000/svg" xmlns:xlink="http://www.w3.org/1999/xlink" width="4157" zoomAndPan="magnify" viewBox="0 0 3117.75 906.749968" height="1209" preserveAspectRatio="xMidYMid meet" version="1.0"><defs><g/></defs><g fill="#206bc4" fill-opacity="1"><g transform="translate(168.396296, 789.086649)"><g><path d="M 603.375 0 L 447.21875 0 L 277.296875 -273.296875 L 219.171875 -231.59375 L 219.171875 0 L 81.640625 0 L 81.640625 -648.65625 L 219.171875 -648.65625 L 219.171875 -351.828125 L 273.296875 -428.140625 L 449 -648.65625 L 601.609375 -648.65625 L 375.34375 -361.59375 Z M 603.375 0 "/></g></g></g><g fill="#4a4a4a" fill-opacity="1"><g transform="translate(1147.872788, 639.233733)"><g><path d="M 41.976562 89.628906 L 97.570312 89.628906 L 97.570312 -40.277344 C 124.796875 -3.972656 162.804688 5.105469 200.8125 5.105469 C 304.621094 5.105469 359.078125 -69.207031 359.078125 -152.59375 C 359.078125 -236.550781 308.023438 -311.996094 201.378906 -311.996094 C 162.804688 -311.996094 119.691406 -299.515625 97.570312 -266.046875 L 97.570312 -306.890625 L 41.976562 -306.890625 Z M 97.570312 -153.726562 C 97.570312 -226.90625 149.757812 -263.210938 201.378906 -263.210938 C 268.882812 -263.210938 303.484375 -209.320312 303.484375 -153.726562 C 303.484375 -98.703125 268.882812 -44.246094 200.8125 -44.246094 C 149.191406 -44.246094 97.570312 -80.550781 97.570312 -153.726562 Z M 97.570312 -153.726562 "/></g></g></g><g fill="#4a4a4a" fill-opacity="1"><g transform="translate(1538.716778, 639.233733)"><g><path d="M 361.347656 0 L 361.347656 -306.890625 L 305.753906 -306.890625 L 306.324219 -266.046875 C 279.09375 -302.917969 233.144531 -311.996094 195.140625 -311.996094 C 91.328125 -311.996094 31.199219 -237.683594 31.199219 -154.863281 C 31.199219 -70.339844 89.058594 5.105469 196.273438 5.105469 C 234.28125 4.539062 283.632812 -7.941406 305.753906 -41.410156 L 305.753906 0 Z M 305.753906 -153.726562 C 305.753906 -79.984375 246.191406 -44.246094 195.140625 -44.246094 C 127.066406 -44.246094 86.792969 -97.003906 86.792969 -154.863281 C 86.792969 -215.558594 127.632812 -263.210938 195.140625 -263.210938 C 247.328125 -263.210938 305.753906 -226.90625 305.753906 -153.726562 Z M 305.753906 -153.726562 "/></g></g></g><g fill="#4a4a4a" fill-opacity="1"><g transform="translate(1936.935053, 639.233733)"><g><path d="M 98.136719 -268.882812 L 98.136719 -306.890625 L 42.542969 -306.890625 L 42.542969 0 L 98.136719 0 L 98.136719 -166.777344 C 98.136719 -220.097656 129.902344 -262.074219 188.332031 -262.074219 C 255.269531 -262.074219 270.585938 -222.367188 270.585938 -164.507812 L 270.585938 0 L 325.609375 0 L 325.609375 -165.074219 C 325.609375 -253 285.902344 -311.425781 192.300781 -311.425781 C 153.726562 -311.425781 120.828125 -301.785156 98.136719 -268.882812 Z M 98.136719 -268.882812 "/></g></g></g><g fill="#4a4a4a" fill-opacity="1"><g transform="translate(2304.521177, 639.233733)"><g><path d="M 43.113281 -387.441406 C 43.113281 -365.886719 60.695312 -355.105469 77.714844 -355.105469 C 95.300781 -355.105469 112.316406 -365.886719 112.316406 -387.441406 C 112.316406 -408.996094 95.300781 -419.207031 78.28125 -419.207031 C 60.695312 -419.207031 43.113281 -408.429688 43.113281 -387.441406 Z M 49.917969 -2.835938 L 49.917969 -310.292969 L 105.511719 -310.292969 L 105.511719 -6.238281 C 105.511719 67.503906 65.234375 95.867188 4.539062 95.867188 C -2.835938 95.867188 -10.777344 95.867188 -19.285156 94.734375 L -19.285156 45.949219 C -14.75 46.515625 -10.210938 46.515625 -6.238281 46.515625 C 24.390625 46.515625 49.917969 35.171875 49.917969 -2.835938 Z M 49.917969 -2.835938 "/></g></g></g><g fill="#4a4a4a" fill-opacity="1"><g transform="translate(2453.711267, 639.233733)"><g><path d="M 39.140625 -385.738281 C 39.140625 -364.183594 56.726562 -353.40625 73.746094 -353.40625 C 91.328125 -353.40625 108.347656 -364.183594 108.347656 -385.738281 C 108.347656 -407.296875 91.328125 -417.507812 74.3125 -417.507812 C 56.726562 -417.507812 39.140625 -406.726562 39.140625 -385.738281 Z M 45.949219 -310.292969 L 101.539062 -310.292969 L 101.539062 0 L 45.949219 0 Z M 45.949219 -310.292969 "/></g></g></g></svg>